PathFileType	4	(X/Y/Z)	C:/Users/opensim2020/Desktop/walking_exp_matlab/subject06_walking16_straight_03.trc	
DataRate	CameraRate	NumFrames	NumMarkers	Units	OrigDataRate	OrigDataStartFrame	OrigNumFrames	
100.00	100.00	8	51	mm	100.00	2893	283	
Frame#	Time	LFHD			RFHD			LBHD			RBHD			C7			T10			CLAV			STRN			RBAK			LSHO			LUPA			LELB			LFRM			LWRA			LWRB			LFIN			RSHO			RUPA			RELB			RFRM			RWRA			RWRB			RFIN			LASI			RASI			LPSI			RPSI			LTHI			LKNE			LTIB			LANK			LHEE			LTOE			RTHI			RKNE			RTIB			RANK			RHEE			RTOE			*39			*40			*41			*42			*43			*44			*45			*46			*47			*48			*49			*50			
		X1	Y1	Z1	X2	Y2	Z2	X3	Y3	Z3	X4	Y4	Z4	X5	Y5	Z5	X6	Y6	Z6	X7	Y7	Z7	X8	Y8	Z8	X9	Y9	Z9	X10	Y10	Z10	X11	Y11	Z11	X12	Y12	Z12	X13	Y13	Z13	X14	Y14	Z14	X15	Y15	Z15	X16	Y16	Z16	X17	Y17	Z17	X18	Y18	Z18	X19	Y19	Z19	X20	Y20	Z20	X21	Y21	Z21	X22	Y22	Z22	X23	Y23	Z23	X24	Y24	Z24	X25	Y25	Z25	X26	Y26	Z26	X27	Y27	Z27	X28	Y28	Z28	X29	Y29	Z29	X30	Y30	Z30	X31	Y31	Z31	X32	Y32	Z32	X33	Y33	Z33	X34	Y34	Z34	X35	Y35	Z35	X36	Y36	Z36	X37	Y37	Z37	X38	Y38	Z38	X39	Y39	Z39	X40	Y40	Z40	X41	Y41	Z41	X42	Y42	Z42	X43	Y43	Z43	X44	Y44	Z44	X45	Y45	Z45	X46	Y46	Z46	X47	Y47	Z47	X48	Y48	Z48	X49	Y49	Z49	X50	Y50	Z50	X51	Y51	Z51	

71	0.700	-1081.32153	-464.74365	1659.55542	-950.62494	-475.36240	1646.06555	-1093.84802	-595.98425	1602.71179	-964.89825	-605.14856	1594.58936	-1033.72852	-600.66412	1445.61560	-1016.63495	-639.63220	1117.34583	-1031.58398	-491.05643	1367.90442	-1033.82837	-451.61273	1194.60486	-944.53711	-673.10858	1278.61389	-1194.00830	-543.91248	1399.15771	-1261.19556	-573.62872	1197.96313	-1268.01794	-599.40717	1088.02795	-1292.95142	-601.22992	938.29120	-1264.28564	-548.24884	816.56598	-1284.78137	-618.47644	819.60010	-1292.13879	-591.57092	732.79620	-872.86530	-532.65356	1403.98315	-776.95044	-542.40460	1207.37195	-760.11328	-513.82886	1089.13647	-741.84906	-469.30502	977.61810	-775.85767	-377.77890	858.47369	-732.43732	-427.26041	846.54291	-732.24854	-371.06580	783.78235	-1122.30457	-454.97641	969.10095	-906.69592	-463.60458	963.35986	-1103.97925	-613.61969	983.91418	-937.00201	-612.73340	979.18970	-1190.06946	-471.74155	653.06732	-1166.15161	-443.32562	492.27567	-1159.14526	-450.94348	234.82123	-1114.55945	-441.44476	63.25560	-1070.90112	-484.52066	49.09208	-1096.16309	-296.29651	37.16214	-854.36725	-499.98608	618.15765	-868.91400	-487.51337	491.27338	-887.24658	-674.06110	311.45648	-931.52228	-812.74017	190.91876	-980.88660	-852.16071	202.45056	-918.00861	-749.75580	49.42717	-1030.34949	-570.24756	1694.62268																																	 
72	0.710	-1082.49341	-456.73859	1660.47534	-951.79095	-467.66183	1646.95862	-1095.36450	-587.88477	1603.28625	-966.41998	-597.23090	1595.11951	-1035.29944	-592.18195	1446.26453	-1018.51678	-631.27942	1117.91736	-1032.80115	-482.79306	1368.65100	-1035.07922	-443.25159	1195.32947	-946.95099	-665.18756	1279.00378	-1195.42664	-535.01465	1399.76868	-1263.19873	-562.45563	1198.31677	-1270.62061	-586.50079	1087.93506	-1294.25183	-584.70013	938.17316	-1264.58716	-529.72577	817.66431	-1286.15601	-600.20630	819.05420	-1292.93933	-571.30756	732.96606	-873.99866	-525.06915	1404.37927	-778.63721	-536.06909	1207.46375	-762.03369	-507.79938	1089.06982	-743.76410	-464.71304	977.00879	-777.86945	-375.02759	856.44354	-734.27173	-424.52835	845.18042	-734.30267	-369.35931	781.60773	-1123.76636	-446.53168	969.21753	-907.71393	-455.49426	964.23016	-1105.51074	-605.36682	984.31909	-938.16522	-605.43372	979.57855	-1191.19263	-465.57092	653.05634	-1166.94507	-438.39780	492.27707	-1159.99329	-450.22229	234.09943	-1114.52893	-441.14093	63.23052	-1070.95068	-484.34332	49.27843	-1096.19971	-295.88217	36.91644	-854.53003	-486.67621	619.20892	-868.54126	-471.03809	492.85815	-888.22522	-656.88098	315.02307	-934.40741	-797.71539	197.46123	-984.51044	-835.93469	209.51170	-918.79193	-739.46027	53.02502	-1031.79822	-562.48950	1695.30151																																	 
73	0.720	-1083.76904	-448.91110	1661.31506	-952.95978	-460.01025	1647.82458	-1096.79456	-579.73718	1603.77502	-967.86743	-589.34753	1595.59558	-1036.83069	-583.89984	1447.08337	-1020.26929	-623.11749	1118.46973	-1033.96204	-474.52347	1369.31067	-1036.35889	-435.07260	1195.92358	-949.30426	-657.34521	1279.42712	-1196.83289	-526.13562	1400.41528	-1265.04834	-551.24438	1198.39063	-1272.89844	-573.52252	1087.81519	-1296.23730	-568.55048	937.87439	-1264.86768	-511.51453	818.67987	-1287.59509	-581.51111	818.45856	-1293.81067	-550.36090	733.23389	-875.08008	-517.38568	1404.67920	-780.27997	-529.87354	1207.44238	-763.88232	-501.93292	1088.86548	-745.69684	-460.25073	976.30426	-779.90082	-372.38068	854.43005	-735.88574	-421.83936	844.14697	-736.33350	-367.70587	779.45142	-1125.14099	-437.99588	969.53876	-908.69501	-447.49976	965.04504	-1106.72205	-597.32111	984.83557	-939.62396	-597.13745	979.83295	-1191.57910	-458.66553	653.59406	-1167.59253	-433.63293	492.28949	-1159.95276	-447.20602	234.92110	-1114.37830	-440.87357	63.24989	-1070.91174	-484.20462	49.37920	-1096.08411	-295.64951	36.70611	-854.71753	-473.87424	620.36237	-868.51746	-455.12460	494.56647	-889.33282	-639.91998	318.07785	-937.04907	-781.99207	202.61084	-988.00159	-819.08667	214.69423	-918.51050	-727.44287	56.62236	-1033.20203	-554.79755	1695.84644																																	 
74	0.730	-1084.83203	-440.90109	1661.94446	-954.23889	-452.31000	1648.56958	-1098.18628	-571.65417	1604.04346	-969.57202	-581.55414	1596.02051	-1038.24927	-575.66046	1447.78003	-1021.84625	-615.11768	1118.93030	-1035.02600	-466.36401	1369.82800	-1037.53430	-427.11038	1196.33289	-951.54510	-649.69275	1279.89868	-1198.10217	-517.35089	1400.78027	-1266.76514	-539.88062	1198.32141	-1275.19128	-560.07770	1087.45239	-1297.68933	-551.51147	937.59784	-1265.55908	-493.62158	819.23560	-1289.10742	-562.55157	817.99170	-1294.53540	-529.05298	733.56384	-876.08228	-509.91412	1404.89209	-781.85114	-523.75598	1207.36560	-765.64386	-496.41315	1088.57898	-747.58948	-455.98676	975.52911	-781.90778	-369.87897	852.39929	-737.67004	-419.27713	842.91711	-738.23706	-366.09338	777.45404	-1126.50317	-429.71204	969.80798	-909.71472	-439.46295	965.79321	-1107.79822	-589.41833	985.31476	-940.59576	-589.26831	980.18665	-1192.06653	-452.31247	653.90771	-1168.10889	-429.07953	492.25201	-1160.14343	-445.21536	234.81732	-1114.20154	-440.64456	63.27428	-1070.70532	-484.33392	49.83366	-1095.95996	-295.52792	36.45837	-854.80701	-461.48541	621.69965	-868.17657	-439.62823	496.46387	-890.67853	-623.31726	320.71487	-939.36810	-765.89343	206.10588	-990.94501	-802.28809	217.63492	-918.17810	-711.52167	60.39100	-1034.67639	-547.02637	1696.37134																																	 
75	0.740	-1086.03955	-433.02914	1662.59814	-955.33685	-444.57184	1649.30078	-1099.54749	-563.55829	1604.33899	-971.01422	-573.64771	1596.45923	-1039.57715	-567.43652	1448.26868	-1023.31293	-607.21301	1119.59619	-1035.95605	-458.28574	1370.32886	-1038.56702	-419.11334	1196.81262	-953.67310	-642.16803	1280.40100	-1199.23486	-508.67233	1400.97595	-1268.55029	-528.52313	1198.26038	-1277.43628	-546.51556	1087.00427	-1299.25708	-534.22980	937.29974	-1265.42810	-473.95578	820.75244	-1290.56641	-543.04541	817.47681	-1295.46204	-507.19861	734.06866	-877.03516	-502.44058	1405.08740	-783.33081	-517.82458	1207.31494	-767.34460	-491.15097	1088.26074	-749.46912	-451.99490	974.73663	-783.84625	-367.54422	850.46875	-739.18213	-417.36066	841.85413	-740.06830	-364.71371	775.51294	-1127.98145	-421.54431	970.20056	-910.75366	-431.28351	966.46423	-1108.68750	-581.60663	985.83801	-941.55316	-581.00470	980.51147	-1192.47485	-446.36362	654.10034	-1168.51990	-424.65067	492.21786	-1160.32178	-443.25354	234.78496	-1114.05542	-440.43741	63.25022	-1070.58093	-484.24133	49.93301	-1095.92126	-295.35605	36.35065	-854.90271	-449.49088	623.16278	-868.12476	-424.79538	498.47269	-891.86554	-607.28528	323.05435	-941.35266	-748.88940	207.88194	-993.25714	-785.20813	218.65907	-917.85614	-692.58075	63.73802	-1036.04407	-539.34668	1696.71204																																	 
76	0.750	-1087.18127	-425.20831	1663.17676	-956.46600	-436.91125	1650.04675	-1100.88867	-555.54443	1604.56128	-972.27179	-565.90161	1596.80225	-1040.88196	-559.48853	1448.91980	-1024.71631	-599.20300	1120.05859	-1036.81262	-450.24707	1370.77002	-1039.59644	-411.31668	1197.19958	-955.65790	-634.72321	1280.92688	-1200.38660	-500.09473	1401.32544	-1270.13831	-516.99371	1198.10669	-1279.65515	-532.78473	1086.63696	-1300.82947	-516.81384	937.12732	-1265.01965	-455.70053	822.17657	-1291.91724	-523.13721	817.04431	-1296.05518	-485.13663	734.82385	-877.91254	-494.98209	1405.31372	-784.79742	-511.96497	1207.28613	-769.00610	-486.07687	1087.95728	-751.32745	-448.21716	973.95093	-785.75092	-365.34613	848.61157	-740.92084	-415.19736	840.76477	-741.84930	-363.35315	773.78241	-1129.39368	-413.54523	970.57837	-911.84052	-423.07669	967.19336	-1109.48340	-573.81403	986.35901	-942.21039	-573.06152	981.01648	-1192.93164	-440.78378	654.20062	-1168.85327	-420.31595	492.11871	-1160.85950	-442.31189	234.07123	-1113.87622	-440.21881	63.26506	-1070.48621	-484.15213	50.05687	-1095.82861	-295.20511	36.18766	-854.99170	-437.74896	624.74719	-868.46582	-410.23111	500.66153	-892.75134	-591.12665	324.59854	-942.84387	-731.31738	208.18361	-995.00104	-767.88690	217.97244	-918.06866	-671.54315	66.12391	-1037.40686	-531.69141	1697.07104																																	 
77	0.760	-1088.20911	-417.27838	1663.77795	-957.49194	-429.26431	1650.76978	-1102.06702	-547.45642	1604.94385	-973.54028	-558.04272	1597.36829	-1042.11755	-551.56940	1449.57178	-1026.00159	-591.39001	1120.67432	-1037.61658	-442.36108	1371.22949	-1040.64624	-403.78290	1197.53064	-957.45660	-627.33649	1281.49670	-1201.45154	-491.68488	1401.61133	-1271.67505	-505.48984	1198.05640	-1281.48328	-518.72095	1086.25134	-1302.28845	-499.31378	937.14709	-1265.20178	-436.17014	823.97705	-1293.46204	-503.31876	817.08838	-1296.77612	-462.91602	735.85944	-878.71039	-487.67294	1405.58411	-786.18506	-506.28958	1207.36267	-770.67358	-481.17142	1087.76782	-753.18475	-444.60004	973.24316	-787.57843	-363.26190	846.93658	-742.91193	-413.35468	839.59851	-743.57184	-362.26501	772.20844	-1130.81396	-405.60049	971.02966	-912.87994	-414.96964	967.90118	-1110.23767	-566.10339	986.96460	-942.89923	-565.04907	981.69159	-1193.49915	-435.19275	654.23578	-1169.21301	-416.07639	492.00226	-1160.71997	-439.43558	234.79269	-1113.74341	-439.98544	63.32445	-1070.35059	-484.11569	50.07508	-1095.77747	-295.08340	36.10786	-855.25787	-425.94214	626.48236	-868.70361	-396.01266	503.10660	-893.36572	-574.69934	325.38281	-943.98932	-713.10468	207.14626	-996.32831	-750.10004	215.66046	-918.46552	-650.11023	66.51225	-1038.72876	-523.87500	1697.65430																																	 
78	0.770	-1089.12476	-409.26443	1664.33618	-958.43066	-421.62265	1651.48450	-1103.24060	-539.45209	1605.38806	-974.69476	-550.33215	1597.89429	-1043.25159	-543.67358	1450.22961	-1027.15063	-583.62268	1121.29700	-1038.38074	-434.62915	1371.81201	-1041.39038	-395.92795	1198.27515	-959.02234	-620.00226	1282.16089	-1202.43054	-483.32718	1401.96326	-1273.13867	-493.83926	1198.19971	-1283.53748	-504.83051	1086.15442	-1303.64722	-481.78174	937.46289	-1264.23755	-418.58392	824.94812	-1294.88257	-483.26105	817.39874	-1297.50049	-440.47314	737.45435	-879.48560	-480.40643	1405.98560	-787.56592	-500.63397	1207.54492	-772.34076	-476.41257	1087.70081	-755.00146	-441.27295	972.68402	-789.29260	-361.34604	845.41986	-744.98615	-411.27728	838.48529	-745.26361	-361.35049	770.67975	-1132.19836	-397.98618	971.40686	-913.99878	-406.73264	968.76495	-1110.96008	-558.34656	987.56262	-943.58356	-557.04913	982.48370	-1193.77295	-430.05984	654.22314	-1169.52856	-411.98764	491.85086	-1161.37842	-438.77011	234.13301	-1113.53857	-439.89948	63.41017	-1069.92383	-483.98889	50.10268	-1095.69702	-294.99103	35.90843	-855.65649	-414.29883	628.36719	-869.00745	-382.10043	505.60529	-893.73438	-557.98694	325.45886	-944.84161	-694.13696	204.68233	-997.30359	-731.68793	212.07478	-919.05475	-625.76263	67.56115	-1039.96533	-516.12170	1698.09363																																	 
